<?xml version="1.0" standalone="no"?>
<!DOCTYPE svg PUBLIC "-//W3C//DTD SVG 20010904//EN"
 "http://www.w3.org/TR/2001/REC-SVG-20010904/DTD/svg10.dtd">
<svg version="1.0" xmlns="http://www.w3.org/2000/svg"
 width="120.000000pt" height="120.000000pt" viewBox="0 0 120.000000 120.000000"
 preserveAspectRatio="xMidYMid meet">

<g transform="translate(0.000000,120.000000) scale(0.100000,-0.100000)"
fill="#000000" stroke="none">
<path d="M450 1175 c-107 -29 -180 -74 -266 -159 -132 -132 -180 -258 -171
-446 6 -129 30 -203 99 -306 90 -135 229 -223 398 -251 81 -14 99 -14 182 0
261 44 451 234 495 495 14 83 14 101 0 182 -28 169 -116 308 -251 398 -108 72
-177 94 -316 98 -82 3 -131 0 -170 -11z m160 -174 c0 -4 -11 -23 -25 -42 -80
-110 -82 -121 -21 -142 42 -14 48 -14 110 9 180 65 308 26 293 -88 -3 -23 -19
-61 -36 -85 -17 -24 -31 -48 -31 -53 0 -5 14 -29 31 -53 32 -46 48 -113 32
-141 -8 -14 -12 -12 -25 16 -9 18 -22 47 -28 63 -6 17 -20 41 -31 54 l-20 24
-37 -30 c-29 -24 -40 -41 -49 -84 -7 -30 -20 -76 -29 -104 -57 -174 -177 -202
-249 -59 l-30 60 -77 0 c-62 -1 -81 3 -104 20 -45 33 -41 43 13 36 53 -7 141
-7 147 -1 2 2 0 27 -6 54 -9 43 -18 56 -62 91 -67 53 -126 139 -133 193 -11
80 53 128 159 118 l58 -5 28 56 c17 33 43 67 62 80 34 23 60 29 60 13z m116
-46 c31 -46 -35 -97 -77 -59 -22 19 -24 36 -8 65 14 26 66 22 85 -6z m-408
-417 c15 -15 15 -61 0 -76 -7 -7 -24 -12 -38 -12 -14 0 -31 5 -38 12 -15 15
-15 61 0 76 7 7 24 12 38 12 14 0 31 -5 38 -12z m564 -130 c24 -20 28 -44 12
-67 -20 -27 -59 -27 -78 1 -20 29 -20 34 4 58 23 23 40 25 62 8z"/>
<path d="M327 799 c-59 -23 -38 -95 52 -184 l51 -49 0 74 c0 41 5 93 10 115 5
22 8 41 6 42 -9 9 -96 11 -119 2z"/>
<path d="M743 794 c-35 -8 -63 -19 -63 -24 0 -4 20 -20 44 -34 23 -14 63 -42
87 -62 l44 -36 27 33 c34 40 46 95 27 115 -22 21 -97 25 -166 8z"/>
<path d="M492 763 c-9 -24 -9 -291 1 -325 l7 -27 63 26 c98 43 258 144 257
163 -2 24 -266 180 -306 180 -8 0 -18 -8 -22 -17z m157 -93 c31 -16 46 -65 31
-100 -7 -17 -21 -35 -31 -40 -68 -37 -153 36 -118 102 24 45 75 62 118 38z"/>
<path d="M655 426 c-33 -17 -79 -39 -103 -48 l-43 -17 26 -50 c41 -83 86 -90
130 -23 23 37 59 145 53 161 -2 5 -30 -6 -63 -23z"/>
</g>
</svg>
